<?xml version="1.0" standalone="no"?>
<!DOCTYPE svg PUBLIC "-//W3C//DTD SVG 20010904//EN"
 "http://www.w3.org/TR/2001/REC-SVG-20010904/DTD/svg10.dtd">
<svg version="1.0" xmlns="http://www.w3.org/2000/svg"
 width="752.000000pt" height="752.000000pt" viewBox="0 0 752.000000 752.000000"
 preserveAspectRatio="xMidYMid meet">
<metadata>
Created by potrace 1.14, written by Peter Selinger 2001-2017
</metadata>
<g transform="translate(0.000000,752.000000) scale(0.100000,-0.100000)"
fill="#000000" stroke="none">
<path d="M3574 7431 c-23 -4 -60 -6 -83 -5 -23 1 -41 -1 -41 -5 0 -3 -21 -7
-47 -7 -47 -2 -128 -10 -128 -14 0 -1 -22 -4 -49 -6 -27 -2 -55 -9 -63 -15 -9
-9 -13 -8 -13 0 0 8 -6 9 -17 3 -10 -5 -36 -12 -58 -16 -71 -11 -154 -29 -235
-51 -98 -26 -169 -47 -185 -54 -34 -15 -179 -63 -192 -64 -7 0 -13 -4 -13 -9
0 -4 -9 -8 -20 -8 -11 0 -20 -4 -20 -10 0 -5 -3 -9 -7 -9 -5 1 -11 0 -15 -1
-5 -1 -11 -3 -15 -4 -29 -7 -83 -31 -83 -38 0 -4 -7 -8 -15 -8 -22 0 -125 -51
-125 -62 0 -5 -4 -7 -9 -4 -9 6 -124 -53 -129 -66 -2 -4 -8 -6 -13 -2 -5 3 -9
0 -9 -7 0 -7 -3 -9 -7 -6 -3 4 -21 -4 -39 -18 -18 -14 -36 -25 -40 -25 -5 0
-58 -33 -119 -72 -120 -80 -127 -85 -156 -110 -10 -10 -19 -15 -19 -12 0 3 -6
-1 -14 -8 -7 -7 -24 -20 -36 -28 -13 -8 -33 -25 -46 -38 -13 -13 -24 -21 -24
-18 0 5 -36 -25 -86 -71 -19 -18 -36 -33 -39 -33 -10 0 -255 -241 -315 -310
-25 -29 -55 -62 -68 -75 -12 -13 -22 -27 -22 -30 0 -3 -8 -13 -17 -23 -30 -31
-65 -74 -87 -107 -12 -17 -31 -41 -44 -55 -12 -13 -22 -29 -22 -36 0 -7 -4
-14 -8 -16 -5 -1 -31 -37 -58 -78 -27 -41 -53 -78 -59 -82 -5 -4 -6 -8 -2 -8
4 0 -3 -15 -16 -32 -13 -18 -39 -61 -58 -95 -18 -35 -37 -63 -42 -63 -4 0 -5
-5 -2 -11 4 -5 0 -18 -8 -27 -8 -9 -32 -53 -52 -97 -21 -44 -48 -102 -61 -128
-13 -27 -24 -55 -24 -63 0 -8 -5 -14 -12 -14 -6 0 -9 -3 -5 -6 3 -4 -3 -24
-13 -45 -11 -21 -22 -46 -23 -56 -2 -10 -9 -29 -14 -43 -10 -24 -67 -190 -68
-200 -7 -38 -19 -70 -26 -70 -6 0 -8 -4 -5 -9 3 -5 -3 -44 -15 -87 -23 -90
-25 -99 -33 -145 -6 -38 -13 -72 -21 -109 -4 -14 -7 -41 -9 -60 -2 -19 -6 -51
-10 -70 -22 -118 -29 -241 -29 -520 0 -239 6 -382 18 -439 2 -14 7 -45 10 -70
3 -25 7 -57 10 -71 3 -14 8 -41 11 -60 3 -19 8 -46 10 -60 3 -14 7 -36 9 -50
2 -14 6 -32 8 -40 2 -8 7 -28 11 -45 4 -16 12 -48 17 -69 6 -22 12 -46 14 -55
12 -49 38 -137 43 -146 4 -5 8 -16 9 -23 2 -6 4 -18 6 -25 1 -6 5 -16 8 -22 4
-5 14 -35 24 -65 16 -51 26 -76 61 -157 8 -17 14 -34 14 -37 0 -3 21 -49 46
-103 25 -54 45 -100 44 -102 -1 -2 2 -7 7 -10 12 -9 43 -71 43 -87 0 -8 3 -14
8 -14 4 0 21 -26 37 -57 17 -32 33 -62 37 -68 5 -5 45 -66 89 -135 66 -101
185 -266 209 -290 3 -3 30 -34 60 -70 80 -96 209 -231 291 -307 13 -11 35 -33
48 -47 13 -14 29 -26 36 -26 8 0 17 -9 20 -20 3 -11 12 -20 20 -20 7 0 15 -4
17 -8 4 -11 92 -81 218 -175 126 -94 368 -241 505 -306 39 -19 73 -39 77 -45
4 -6 10 -7 14 -3 4 4 16 0 26 -10 10 -9 18 -13 18 -8 0 4 10 1 23 -7 12 -8 42
-22 67 -32 25 -10 56 -23 70 -29 14 -5 30 -11 35 -13 6 -1 35 -12 65 -24 30
-12 62 -23 70 -25 8 -2 34 -10 57 -18 22 -9 44 -13 47 -10 3 4 6 1 6 -5 0 -6
7 -9 15 -6 8 4 15 1 15 -7 0 -7 2 -10 5 -7 3 3 53 -7 110 -23 58 -15 105 -25
105 -22 0 3 6 1 13 -4 6 -5 26 -10 42 -12 17 -2 37 -6 45 -10 8 -4 27 -7 43
-6 15 0 27 -2 27 -5 0 -3 12 -6 28 -6 30 -2 105 -12 140 -20 35 -7 141 -17
190 -18 23 0 42 -2 42 -5 0 -9 473 -6 499 3 18 6 22 5 16 -4 -6 -9 -4 -11 5
-5 14 9 30 11 130 19 36 3 74 7 85 9 11 3 41 7 66 11 47 7 77 12 127 21 15 3
43 8 62 11 46 8 65 12 65 14 0 1 10 3 23 6 12 2 32 6 45 8 12 3 23 5 25 7 1 1
7 3 12 4 6 1 11 3 13 5 1 1 9 3 18 5 9 1 43 11 75 20 33 9 67 19 76 20 9 2 25
8 35 13 10 6 23 11 28 12 16 4 37 11 78 26 20 8 37 11 37 8 0 -4 6 -1 13 5 8
6 17 8 20 4 4 -3 7 -2 7 4 0 6 10 13 23 17 13 3 41 13 63 23 21 9 41 17 44 18
40 12 271 125 293 143 9 8 17 12 17 8 0 -4 13 2 29 13 16 12 32 21 36 21 4 0
18 9 32 20 14 11 29 17 34 14 5 -3 9 -1 9 5 0 10 38 34 73 47 9 3 17 10 17 15
0 5 7 9 15 9 8 0 15 5 15 10 0 6 7 10 15 10 8 0 15 5 15 10 0 6 6 10 14 10 8
0 16 3 18 8 2 4 26 23 53 42 60 41 55 38 130 97 33 25 62 50 63 55 2 4 8 8 14
8 5 0 15 6 22 12 7 7 41 38 76 68 90 79 250 239 250 251 0 6 5 7 10 4 6 -3 10
-2 10 2 0 5 18 28 40 52 22 23 40 44 40 46 0 3 12 17 28 33 40 43 82 93 82 99
0 3 10 17 23 32 12 15 31 40 42 55 11 16 25 33 30 40 13 15 42 59 44 68 1 4
12 18 24 32 12 13 31 41 42 63 11 21 25 42 32 46 7 4 13 12 13 18 0 5 11 27
25 49 14 22 23 40 19 40 -3 0 2 8 11 17 10 9 22 29 27 45 6 15 14 28 19 28 5
0 9 7 9 15 0 14 32 78 51 101 5 6 6 14 2 17 -3 4 0 7 7 7 7 0 11 3 7 6 -3 3 4
22 15 42 11 20 22 45 24 56 2 11 9 23 15 26 6 4 10 9 9 11 -1 4 13 46 27 79 3
8 7 18 8 23 2 4 4 9 5 12 1 3 3 8 5 13 1 4 7 21 14 37 6 17 16 44 22 60 6 17
14 39 19 50 12 33 31 93 35 113 1 10 10 35 19 55 11 27 12 37 3 37 -9 0 -9 2
-1 8 7 4 19 41 29 82 9 41 21 90 27 107 5 18 7 37 3 43 -3 5 -2 10 4 10 5 0 8
8 7 18 -2 9 0 28 5 42 4 14 10 48 14 75 3 28 8 61 10 75 7 35 15 105 20 170 3
30 7 78 9 105 6 65 7 371 1 455 -2 36 -7 98 -9 139 -3 40 -10 79 -15 85 -7 9
-7 16 1 24 7 7 8 12 2 12 -5 0 -9 12 -9 26 1 14 -4 56 -11 92 -7 37 -16 86
-19 109 -4 23 -20 95 -36 160 -16 65 -31 127 -34 137 -2 10 -9 35 -15 55 -14
45 -17 55 -19 61 -4 21 -39 111 -44 117 -4 3 -7 15 -7 25 0 10 -4 26 -9 36
-17 32 -51 112 -51 120 0 5 -9 27 -20 50 -11 22 -20 46 -20 52 0 5 -5 10 -12
10 -6 0 -9 3 -5 6 3 4 -5 26 -18 51 -14 24 -25 50 -25 58 0 8 -3 15 -8 15 -4
0 -14 15 -21 33 -24 53 -133 242 -142 245 -5 2 -9 9 -9 17 0 7 -7 18 -15 25
-8 7 -13 16 -10 20 3 5 1 10 -3 12 -7 2 -74 95 -107 146 -5 9 -14 21 -20 27
-5 7 -21 27 -35 45 -62 82 -153 190 -161 190 -5 0 -9 5 -9 11 0 7 -20 32 -45
57 -25 24 -45 49 -45 53 0 5 -7 9 -17 9 -9 0 -14 3 -11 6 4 3 -8 19 -25 36
-182 172 -280 260 -299 267 -6 2 -27 19 -46 37 -20 19 -42 34 -49 34 -7 0 -13
4 -13 9 0 10 -122 97 -132 93 -5 -1 -8 2 -8 6 0 9 -130 96 -140 94 -3 0 -12 6
-21 14 -9 8 -33 24 -53 34 -20 11 -52 29 -71 39 -20 11 -43 25 -52 33 -9 7
-18 12 -20 10 -2 -1 -36 14 -76 35 -39 20 -75 36 -79 35 -5 -1 -8 3 -8 9 0 5
-5 7 -10 4 -6 -3 -17 1 -26 9 -9 9 -20 14 -25 11 -5 -4 -9 -1 -9 4 0 6 -3 10
-7 9 -5 -1 -19 4 -33 9 -91 39 -309 119 -345 127 -5 2 -30 8 -55 15 -25 7 -45
12 -46 10 0 -2 -9 3 -19 11 -13 10 -16 11 -11 2 6 -11 2 -10 -20 1 -16 8 -42
16 -59 18 -16 2 -35 7 -40 11 -6 4 -28 8 -49 10 -20 1 -39 5 -42 9 -2 4 -15 6
-29 4 -14 -1 -25 1 -25 5 0 5 -8 7 -17 6 -10 -2 -31 1 -48 5 -16 4 -50 11 -75
14 -25 3 -65 9 -90 12 -25 3 -64 7 -87 7 -24 1 -43 3 -43 6 0 6 -9 7 -273 15
-147 4 -193 3 -205 -7 -12 -10 -14 -10 -8 0 4 6 4 11 -1 11 -4 -1 -27 -5 -49
-8z m186 -1734 c0 7 11 10 28 8 15 -2 43 -6 62 -8 44 -5 127 -47 166 -84 49
-45 75 -98 229 -468 80 -192 150 -359 155 -370 5 -11 23 -54 40 -95 17 -41 38
-89 46 -107 8 -17 14 -34 14 -37 0 -3 12 -31 26 -63 40 -89 54 -121 54 -126 0
-2 10 -26 22 -53 12 -27 23 -51 23 -54 1 -3 9 -23 19 -45 10 -22 27 -62 38
-90 27 -68 146 -350 169 -402 10 -24 19 -45 19 -48 0 -3 10 -27 21 -53 25 -54
32 -72 88 -204 23 -53 41 -100 41 -104 0 -4 11 -30 24 -58 30 -63 66 -144 66
-150 0 -2 8 -21 17 -42 9 -22 17 -41 18 -44 1 -3 9 -23 19 -45 9 -22 44 -105
77 -185 34 -80 67 -158 74 -175 8 -16 37 -86 66 -155 28 -69 62 -150 74 -180
31 -74 45 -168 32 -220 -28 -113 -76 -178 -177 -235 -53 -30 -187 -28 -255 4
-68 32 -127 96 -168 183 -50 107 -77 167 -77 173 0 4 -34 83 -60 140 -5 11
-43 99 -84 195 l-74 175 -826 0 c-823 0 -825 0 -834 -21 -6 -11 -65 -150 -132
-310 -191 -453 -173 -416 -227 -470 -63 -64 -114 -87 -205 -90 -104 -5 -170
17 -225 73 -87 90 -99 233 -31 383 28 63 34 78 59 140 11 30 27 69 35 85 8 17
37 86 65 155 28 69 57 139 64 155 11 25 59 141 95 230 5 11 17 40 28 65 11 25
98 232 192 460 95 228 178 429 186 445 7 17 74 179 150 360 75 182 142 344
150 360 7 17 63 152 124 300 104 251 130 313 151 357 5 10 9 25 9 33 0 8 5 15
11 15 5 0 8 4 5 9 -9 13 71 162 107 199 56 59 191 115 209 88 5 -8 8 -7 8 1z"/>
<path d="M3752 4584 c-5 -10 -35 -80 -67 -154 -31 -74 -63 -148 -70 -165 -7
-16 -68 -160 -135 -320 -67 -159 -127 -303 -135 -320 -7 -16 -29 -68 -48 -115
-20 -47 -47 -111 -61 -142 l-26 -58 550 1 c448 0 550 3 550 13 0 8 -11 38 -24
67 -13 30 -61 140 -106 244 -46 105 -91 208 -100 230 -10 22 -39 90 -65 150
-26 61 -54 126 -63 145 -9 19 -16 37 -17 40 0 3 -11 27 -23 54 -12 27 -22 50
-22 52 0 2 -11 27 -24 56 -56 124 -66 148 -84 194 -17 42 -20 46 -30 28z"/>
</g>
</svg>
